<svg width="27" height="16" viewBox="0 0 27 16" fill="none" xmlns="http://www.w3.org/2000/svg">
<g clip-path="url(#clip0_251_4955)">
<path d="M17.9123 0V10.4316H0.00195312V0H17.9123Z" fill="black"/>
<path d="M18.7665 8.49464C18.7665 7.08916 18.7665 5.68283 18.7665 4.27566C18.7665 3.81976 18.8599 3.7209 19.2913 3.72027C20.7194 3.72027 22.1474 3.72405 23.5725 3.71649C24.0128 3.71649 24.3139 3.9054 24.5442 4.30526C25.3094 5.64085 26.0984 6.96133 26.8684 8.2944C26.9471 8.43596 26.9895 8.59678 26.9916 8.761C27.0017 10.072 26.9981 11.3831 26.9969 12.6941C26.9969 13.1431 26.8969 13.2451 26.4679 13.2457C25.9919 13.2457 25.5159 13.2608 25.0399 13.24C24.9766 13.2323 24.9156 13.2105 24.8608 13.1762C24.8059 13.142 24.7585 13.0959 24.7215 13.0411C23.6963 11.2861 21.4614 11.2779 20.4558 13.0411C20.3653 13.1991 20.2707 13.257 20.1023 13.2501C19.8256 13.2388 19.5478 13.2501 19.2693 13.2501C18.8528 13.2501 18.7617 13.1462 18.7617 12.7092C18.7617 11.3037 18.7617 9.8974 18.7617 8.49023L18.7665 8.49464ZM22.5604 7.91217C23.3339 7.91217 24.1074 7.91847 24.881 7.91217C25.3386 7.90713 25.4504 7.68359 25.2172 7.27744C24.7858 6.5218 24.333 5.78253 23.9325 5.01052C23.6999 4.56218 23.3833 4.39531 22.921 4.40349C22.0486 4.41924 21.1757 4.40916 20.3028 4.40979C19.8952 4.40979 19.7881 4.51747 19.787 4.94566C19.7846 5.75336 19.7846 6.56126 19.787 7.36937C19.787 7.80323 19.8917 7.91091 20.2963 7.91154C21.052 7.9128 21.8067 7.91301 22.5604 7.91217ZM26.0776 12.06C26.0847 12.1947 26.0574 12.3471 26.1091 12.4599C26.1609 12.5726 26.2936 12.7155 26.3846 12.7117C26.4971 12.7061 26.6821 12.5751 26.697 12.4737C26.7386 12.2075 26.737 11.9358 26.6923 11.6702C26.6756 11.5682 26.5007 11.4183 26.4102 11.4259C26.2989 11.4372 26.1722 11.5745 26.1067 11.6922C26.0538 11.7873 26.0841 11.9347 26.0776 12.06Z" fill="black"/>
<path d="M17.9215 11.1387C17.9215 11.8566 17.9215 12.5379 17.9215 13.2167C17.9161 13.2923 17.907 13.3676 17.8941 13.4422H17.602C13.9644 13.4422 10.3272 13.4432 6.69035 13.4453C6.50767 13.4453 6.38986 13.4138 6.29585 13.2117C5.85374 12.2634 5.1165 11.7426 4.12102 11.7313C3.15172 11.7193 2.41686 12.2042 1.93548 13.1028C1.89204 13.184 1.85217 13.2678 1.8129 13.3465C1.33331 13.3036 1.00664 12.6966 1.03936 12.208C1.08102 11.6305 1.44875 11.1696 1.97951 11.1337C2.40436 11.1054 2.83159 11.1205 3.25763 11.1205H17.5907C17.6877 11.123 17.7846 11.1318 17.9215 11.1387Z" fill="black"/>
<path d="M4.01175 15.9968C3.53089 15.9962 3.06964 15.7952 2.72784 15.4372C2.38605 15.0793 2.19124 14.5933 2.18561 14.0844C2.18365 13.8294 2.22932 13.5765 2.31998 13.3402C2.41065 13.1039 2.54452 12.8889 2.71393 12.7075C2.88333 12.5261 3.08493 12.382 3.30714 12.2833C3.52935 12.1846 3.7678 12.1333 4.00878 12.1324C4.48979 12.1338 4.95089 12.3358 5.29223 12.6944C5.63358 13.053 5.82769 13.5395 5.83254 14.0486C5.83411 14.3031 5.78822 14.5554 5.69752 14.7911C5.60682 15.0269 5.47309 15.2414 5.30397 15.4223C5.13485 15.6033 4.93366 15.7472 4.71192 15.8458C4.49019 15.9444 4.25225 15.9957 4.01175 15.9968ZM5.27737 14.0656C5.27737 13.3376 4.68949 12.7167 4.00521 12.7237C3.6743 12.731 3.35875 12.8728 3.124 13.1197C2.88924 13.3666 2.75329 13.6997 2.74435 14.0498C2.73185 14.7727 3.31735 15.4056 4.00342 15.4093C4.33948 15.4056 4.66084 15.2629 4.89887 15.0119C5.1369 14.7608 5.27273 14.4212 5.27737 14.0656Z" fill="black"/>
<path d="M22.5207 12.1381C23.0019 12.1429 23.4618 12.3485 23.8004 12.7103C24.1391 13.0721 24.329 13.5608 24.329 14.07C24.3235 14.5839 24.1268 15.0747 23.7814 15.4361C23.4361 15.7974 22.9701 16 22.4844 16C22.0035 15.9942 21.5441 15.7878 21.2062 15.4255C20.8683 15.0633 20.6791 14.5746 20.6797 14.0656C20.6784 13.8103 20.7253 13.5573 20.8176 13.3215C20.9099 13.0857 21.0458 12.8717 21.2173 12.6922C21.3887 12.5126 21.5924 12.3711 21.8162 12.276C22.04 12.1808 22.2795 12.134 22.5207 12.1381ZM21.2378 14.0819C21.2432 14.8137 21.8329 15.4276 22.5148 15.4112C23.1967 15.3949 23.7858 14.7589 23.7739 14.0498C23.762 13.3408 23.1866 12.7275 22.516 12.7275C22.3475 12.7256 22.1803 12.7594 22.0244 12.8268C21.8684 12.8943 21.7267 12.994 21.6077 13.1202C21.4886 13.2463 21.3946 13.3964 21.331 13.5616C21.2675 13.7267 21.2359 13.9036 21.2378 14.0819Z" fill="black"/>
</g>
<defs>
<clipPath id="clip0_251_4955">
<rect width="27" height="16" fill="white"/>
</clipPath>
</defs>
</svg>
